<svg xmlns="http://www.w3.org/2000/svg" width="281.5" height="213.479" viewBox="0 0 281.5 213.479">
  <g id="Group_42" data-name="Group 42" transform="translate(-194 -123)">
    <ellipse id="Ellipse_218" data-name="Ellipse 218" cx="26.699" cy="6.151" rx="26.699" ry="6.151" transform="translate(418.257 324.178)" fill="#e6e6e6"/>
    <path id="Path_1092" data-name="Path 1092" d="M708.42,138.586v8.045l4.2,10.494,6.646-11.893v-9.095Z" transform="translate(-263.814 34.484)" fill="#a0616a"/>
    <path id="Path_1093" data-name="Path 1093" d="M853.051,466.495l-1.049,7.7s-2.449,8.4,1.049,8.4,3.5-9.095,3.5-9.095l.7-5.247Z" transform="translate(-427.16 -230.985)" fill="#a0616a"/>
    <path id="Path_1094" data-name="Path 1094" d="M974.051,463.495l-1.049,7.7s-2.449,8.4,1.049,8.4,3.5-9.095,3.5-9.095l.7-5.247Z" transform="translate(-505.833 -229.035)" fill="#a0616a"/>
    <path id="Path_1095" data-name="Path 1095" d="M871.4,440.883l-1.646.455s-4.3,27.879-4.65,42.571-1.049,51.771-1.049,51.771h11.194l7.346-62.965,3.5,62.965h11.893s4.9-82.553,1.749-89.2S871.4,440.883,871.4,440.883Z" transform="translate(-435.535 -214.293)" fill="#2f2e41"/>
    <path id="Path_1096" data-name="Path 1096" d="M852.359,709.995l-3.148,4.9s-8.745,7.346-1.049,7,10.844-3.848,10.844-3.848v1.049l4.2-1.4-.7-7.7Z" transform="translate(-423.145 -389.308)" fill="#2f2e41"/>
    <path id="Path_1097" data-name="Path 1097" d="M937.894,709.995l3.148,4.9s8.745,7.346,1.049,7-10.844-3.848-10.844-3.848v1.049l-4.2-1.4.7-7.7Z" transform="translate(-476.498 -389.308)" fill="#2f2e41"/>
    <circle id="Ellipse_219" data-name="Ellipse 219" cx="7.696" cy="7.696" r="7.696" transform="translate(441.283 159.602)" fill="#a0616a"/>
    <path id="Path_1098" data-name="Path 1098" d="M707.716,165.632l-3.848-7.879-1.749,4.031-.7,34.63,16.091-36.03-2.8-3.095Z" transform="translate(-259.263 20.731)" fill="#575a89"/>
    <path id="Path_1099" data-name="Path 1099" d="M909.878,315.5l-12.755-8.336s-.887,7.986-8.933,7.286-4.285-6.766-4.285-6.766L871.05,314.8l4.9,27.285-2.1,15.741s18.889-2.1,23.087,1.049a17.936,17.936,0,0,0,8.4,3.5l-.7-26.935Z" transform="translate(-440.087 -127.389)" fill="#d1d1d1"/>
    <path id="Path_1100" data-name="Path 1100" d="M966.5,330.659l2.42-2.333,1.778,1.283s1.749,2.1,3.148,8.4.7,34.281.7,34.281l-7.7-1.049.35-11.544L964.05,344.3Z" transform="translate(-500.555 -141.149)" fill="#d1d1d1"/>
    <path id="Path_1101" data-name="Path 1101" d="M861.8,327.485l-1.322-.274-1.127.624s-3.148,4.2-3.148,8.045-3.148,36.729-3.148,36.729l7,3.148,4.9-24.836Z" transform="translate(-428.383 -140.423)" fill="#d1d1d1"/>
    <path id="Path_1102" data-name="Path 1102" d="M977.979,451.606s-7-4.2-9.445-1.4,1.4,5.6,1.4,5.6S980.778,460,977.979,451.606Z" transform="translate(-502.941 -219.769)" fill="#575a89"/>
    <path id="Path_1103" data-name="Path 1103" d="M855.979,457.606s-7-4.2-9.445-1.4,1.4,5.6,1.4,5.6S858.778,466,855.979,457.606Z" transform="translate(-423.617 -223.671)" fill="#575a89"/>
    <path id="Path_1104" data-name="Path 1104" d="M912.383,245.719s2.013-3.848-2.415-4.2c0,0-4.026-2.449-7.246.35,0,0-2.818-.7-3.623,1.4a1.448,1.448,0,0,1,.8-1.749s-2.818-.7-2.818,2.8a10.943,10.943,0,0,0,0,6.646c1.208,3.148,1.609,3.5,1.609,3.5s-1.985-6.6,2.846-6.95,10.237-3.369,10.64.479,1.208,4.9,1.208,4.9S917.013,247.293,912.383,245.719Z" transform="translate(-456.666 -84.063)" fill="#2f2e41"/>
    <path id="Path_1105" data-name="Path 1105" d="M294.782,335.081h-.048c-1.789,0-3.6-.053-5.381-.158l.027-.45c1.773.1,3.575.158,5.354.158h.048Zm5.43-.164-.027-.45c1.792-.107,3.6-.271,5.382-.486l.054.447c-1.789.216-3.609.38-5.408.488Zm-16.269-.476c-1.791-.214-3.6-.486-5.372-.807l.08-.444c1.764.32,3.562.59,5.345.8Zm27.05-.825-.081-.444c1.765-.322,3.543-.7,5.285-1.131l.108.438c-1.749.431-3.537.813-5.311,1.137ZM273.258,332.5c-1.751-.429-3.513-.918-5.234-1.452l.134-.431c1.714.532,3.466,1.018,5.208,1.445Zm48.278-1.481-.134-.431c1.71-.533,3.428-1.127,5.107-1.765l.16.422c-1.687.642-3.414,1.239-5.133,1.775Zm-58.659-1.742c-1.687-.639-3.378-1.339-5.027-2.081l.185-.411c1.641.738,3.323,1.434,5,2.071Zm68.8-2.11-.185-.411c1.633-.735,3.265-1.533,4.851-2.367l.21.4c-1.594.84-3.234,1.641-4.876,2.381Zm-78.719-2.354c-1.6-.84-3.192-1.739-4.735-2.674l.233-.385c1.535.929,3.12,1.825,4.711,2.661Zm88.32-2.7-.233-.385c1.533-.929,3.059-1.917,4.533-2.937l.256.371C344.354,320.191,342.82,321.184,341.281,322.118Zm-97.617-2.931c-1.485-1.026-2.958-2.111-4.377-3.223l.28-.355c1.412,1.107,2.877,2.186,4.355,3.207Zm106.544-3.241-.28-.355c1.415-1.111,2.811-2.274,4.15-3.463l.3.337c-1.345,1.193-2.748,2.363-4.171,3.479Zm-115.1-3.463c-1.351-1.2-2.682-2.449-3.957-3.723l.319-.319c1.269,1.268,2.593,2.514,3.937,3.7Zm123.221-3.743-.319-.319c1.27-1.271,2.519-2.594,3.708-3.936l.337.3c-1.195,1.348-2.449,2.678-3.725,3.955ZM227.43,304.8c-1.2-1.35-2.369-2.753-3.481-4.169l.354-.28c1.107,1.409,2.274,2.8,3.463,4.148Zm138.11-4.189-.355-.28c1.111-1.416,2.19-2.881,3.209-4.353l.371.256C367.741,297.721,366.655,299.193,365.539,300.616ZM220.724,296.27c-1.027-1.483-2.021-3.015-2.954-4.554l.385-.234c.929,1.531,1.918,3.056,2.938,4.532Zm151-4.591-.385-.233c.931-1.537,1.827-3.121,2.663-4.71l.4.21C373.557,288.54,372.658,290.133,371.721,291.678ZM215.1,286.993c-.84-1.594-1.641-3.234-2.382-4.874l.411-.186c.737,1.632,1.535,3.264,2.37,4.85Zm161.686-4.937-.411-.185c.74-1.644,1.438-3.325,2.073-5l.422.16c-.639,1.684-1.34,3.375-2.084,5.026Zm-166.149-4.945c-.642-1.686-1.239-3.413-1.777-5.133l.43-.135c.535,1.712,1.13,3.43,1.768,5.107Zm170.008-5.226-.431-.134c.533-1.714,1.02-3.466,1.448-5.207l.438.107c-.43,1.75-.919,3.511-1.455,5.233ZM207.4,266.745c-.432-1.749-.815-3.535-1.14-5.311l.444-.081c.324,1.766.705,3.544,1.134,5.284Zm175.835-5.407-.444-.081c.32-1.764.592-3.562.8-5.344l.447.054c-.213,1.79-.486,3.6-.808,5.371Zm-177.791-5.274c-.217-1.788-.382-3.608-.49-5.409l.45-.027c.108,1.792.273,3.6.49,5.382Zm179.086-5.507-.45-.027c.1-1.789.16-3.606.16-5.4v-.191h.451v.191C384.686,246.934,384.632,248.76,384.525,250.557Zm-179.293-5.333h-.451v-.1c0-1.774.052-3.568.155-5.333l.45.027c-.1,1.756-.155,3.542-.155,5.307Zm178.832-5.689c-.111-1.794-.277-3.605-.494-5.382l.447-.055c.218,1.786.385,3.605.5,5.409Zm-178.2-5.1-.448-.053c.213-1.791.484-3.6.8-5.372l.444.08C206.345,230.859,206.076,232.657,205.864,234.439Zm176.888-5.627c-.326-1.769-.71-3.547-1.14-5.282l.438-.108c.433,1.745.818,3.533,1.146,5.31Zm-174.964-5.005-.438-.107c.428-1.749.915-3.512,1.45-5.235l.431.133c-.531,1.714-1.017,3.467-1.442,5.209Zm172.365-5.482c-.536-1.712-1.133-3.43-1.773-5.107l.42-.161c.643,1.684,1.243,3.411,1.784,5.132ZM210.99,213.477l-.422-.16c.638-1.687,1.338-3.379,2.079-5.028l.411.185C212.321,210.115,211.625,211.8,210.99,213.477ZM376.3,208.238c-.739-1.631-1.539-3.262-2.375-4.847l.4-.21c.842,1.593,1.644,3.232,2.387,4.872Zm-160.878-4.63-.4-.21c.837-1.6,1.735-3.189,2.671-4.737l.385.233C217.152,200.435,216.258,202.02,215.425,203.608Zm155.837-4.913c-.93-1.529-1.921-3.053-2.944-4.528l.371-.257c1.028,1.483,2.024,3.014,2.959,4.551Zm-150.244-4.343-.371-.256c1.024-1.483,2.107-2.956,3.221-4.378l.355.278C223.117,191.411,222.038,192.876,221.019,194.352Zm144.087-4.53c-1.111-1.41-2.278-2.8-3.468-4.144l.337-.3c1.2,1.346,2.369,2.747,3.485,4.165ZM227.684,185.84l-.338-.3c1.195-1.35,2.449-2.682,3.721-3.958l.319.318C230.119,183.171,228.873,184.5,227.684,185.84Zm130.244-4.093c-1.274-1.269-2.6-2.514-3.941-3.7l.3-.338c1.348,1.192,2.681,2.443,3.961,3.719Zm-122.61-3.556-.3-.337c1.346-1.2,2.748-2.367,4.167-3.483l.28.354C238.054,175.836,236.657,177,235.318,178.192Zm114.512-3.6c-1.413-1.105-2.879-2.183-4.359-3.2l.256-.371c1.487,1.025,2.96,2.108,4.38,3.218Zm-106.02-3.074-.257-.371c1.482-1.027,3.013-2.022,4.553-2.956l.234.385c-1.532.93-3.056,1.92-4.53,2.942Zm97.117-3.062c-1.539-.929-3.125-1.822-4.714-2.655l.21-.4c1.6.837,3.191,1.735,4.738,2.668Zm-87.889-2.541-.21-.4c1.593-.84,3.233-1.644,4.873-2.385l.186.411c-1.632.738-3.263,1.536-4.848,2.373Zm78.309-2.478c-1.641-.735-3.323-1.431-5-2.064l.16-.422c1.688.637,3.38,1.336,5.029,2.076Zm-68.477-1.967-.161-.42c1.687-.643,3.414-1.241,5.133-1.779l.135.43c-1.712.533-3.43,1.129-5.108,1.769Zm58.351-1.854c-1.714-.53-3.467-1.014-5.21-1.439l.107-.438c1.749.427,3.512.914,5.236,1.447Zm-48.04-1.371-.108-.438c1.751-.433,3.538-.817,5.31-1.143l.081.444c-1.763.324-3.541.706-5.282,1.137Zm37.543-1.189c-1.762-.318-3.561-.587-5.345-.8l.053-.448c1.794.212,3.6.482,5.373.8Zm-26.917-.764-.055-.448c1.787-.218,3.607-.385,5.409-.494l.027.45c-1.793.11-3.6.275-5.382.49Zm16.187-.508c-1.741-.1-3.511-.152-5.26-.152h-.143v-.451h.143c1.757,0,3.536.051,5.286.153Z" transform="translate(-6.933 -28.678)" fill="#3f3b56"/>
    <rect id="Rectangle_316" data-name="Rectangle 316" width="53.454" height="40.091" transform="translate(325.105 273.505)" fill="#046e27"/>
    <rect id="Rectangle_317" data-name="Rectangle 317" width="40.091" height="2.673" transform="translate(331.786 284.196)" fill="#fff"/>
    <rect id="Rectangle_318" data-name="Rectangle 318" width="40.091" height="2.673" transform="translate(331.786 292.214)" fill="#fff"/>
    <rect id="Rectangle_319" data-name="Rectangle 319" width="40.091" height="2.673" transform="translate(331.786 300.232)" fill="#fff"/>
    <rect id="Rectangle_320" data-name="Rectangle 320" width="37.338" height="28.003" transform="translate(196.798 123)" fill="#e6e6e6"/>
    <rect id="Rectangle_321" data-name="Rectangle 321" width="28.003" height="1.867" transform="translate(201.465 130.468)" fill="#fff"/>
    <rect id="Rectangle_322" data-name="Rectangle 322" width="28.003" height="1.867" transform="translate(201.465 136.068)" fill="#fff"/>
    <rect id="Rectangle_323" data-name="Rectangle 323" width="28.003" height="1.867" transform="translate(201.465 141.669)" fill="#fff"/>
    <rect id="Rectangle_324" data-name="Rectangle 324" width="37.338" height="28.003" transform="translate(212.667 137.468)" fill="#046e27"/>
    <rect id="Rectangle_325" data-name="Rectangle 325" width="28.003" height="1.867" transform="translate(217.334 144.936)" fill="#fff"/>
    <rect id="Rectangle_326" data-name="Rectangle 326" width="28.003" height="1.867" transform="translate(217.334 150.537)" fill="#fff"/>
    <rect id="Rectangle_327" data-name="Rectangle 327" width="28.003" height="1.867" transform="translate(217.334 156.137)" fill="#fff"/>
    <path id="Subtraction_1" data-name="Subtraction 1" d="M1131.793-3168.743H1030V-3245h101.793Zm-100.743-75.208v74.158h99.694v-74.158Z" transform="translate(-792.974 3423.269)" fill="#e6e6e6"/>
    <g id="Group_41" data-name="Group 41" transform="translate(268.508 197.158)">
      <circle id="Ellipse_220" data-name="Ellipse 220" cx="19.382" cy="19.382" r="19.382" transform="translate(0 0)" fill="#046e27"/>
      <path id="Path_1106" data-name="Path 1106" d="M435.907,384.352h-6.59v-6.59a1.551,1.551,0,0,0-1.551-1.551h0a1.551,1.551,0,0,0-1.551,1.551v6.59h-6.59a1.551,1.551,0,0,0-1.551,1.551h0a1.551,1.551,0,0,0,1.551,1.551h6.59v6.59a1.551,1.551,0,0,0,1.551,1.551h0a1.551,1.551,0,0,0,1.551-1.551v-6.59h6.59a1.551,1.551,0,0,0,1.551-1.551h0A1.551,1.551,0,0,0,435.907,384.352Z" transform="translate(-408.476 -366.597)" fill="#fff"/>
    </g>
    <rect id="Rectangle_341" data-name="Rectangle 341" width="37.338" height="28.003" transform="translate(194 266.769)" fill="#e6e6e6"/>
    <rect id="Rectangle_342" data-name="Rectangle 342" width="28.003" height="1.867" transform="translate(198.667 274.237)" fill="#fff"/>
    <rect id="Rectangle_343" data-name="Rectangle 343" width="28.003" height="1.867" transform="translate(198.667 279.837)" fill="#fff"/>
    <rect id="Rectangle_344" data-name="Rectangle 344" width="28.003" height="1.867" transform="translate(198.667 285.438)" fill="#fff"/>
  </g>
</svg>
